<?xml version="1.0" encoding="UTF-8" standalone="no"?>
<svg
   version="1.1"
   viewBox="-5 -10 95 95"
   id="svg2"
   sodipodi:docname="check.svg"
   width="95"
   height="95"
   inkscape:version="1.4 (86a8ad7, 2024-10-11)"
   xmlns:inkscape="http://www.inkscape.org/namespaces/inkscape"
   xmlns:sodipodi="http://sodipodi.sourceforge.net/DTD/sodipodi-0.dtd"
   xmlns="http://www.w3.org/2000/svg"
   xmlns:svg="http://www.w3.org/2000/svg">
  <defs
     id="defs2" />
  <sodipodi:namedview
     id="namedview2"
     pagecolor="#ffffff"
     bordercolor="#000000"
     borderopacity="0.25"
     inkscape:showpageshadow="2"
     inkscape:pageopacity="0.0"
     inkscape:pagecheckerboard="0"
     inkscape:deskcolor="#d1d1d1"
     inkscape:zoom="5.7259259"
     inkscape:cx="47.503234"
     inkscape:cy="54.925614"
     inkscape:window-width="1920"
     inkscape:window-height="991"
     inkscape:window-x="-9"
     inkscape:window-y="-9"
     inkscape:window-maximized="1"
     inkscape:current-layer="svg2" />
  <path
     d="M 42.496,-10 C 16.289,-10 -5,11.297 -5,37.504 -5,63.711 16.289,85 42.496,85 68.703,85 90,63.711 90,37.504 90,11.297 68.703,-10 42.496,-10 Z m 20.879,25.949 c 1.7422,0 3.4766,0.65625 4.793,1.9688 2.6289,2.6289 2.6289,6.9688 0,9.6016 l -28.785,28.785 c -2.6289,2.6289 -6.9727,2.6289 -9.6016,0 l -12.793,-12.797 c -2.6289,-2.6289 -2.6289,-6.9609 0,-9.5938 2.6289,-2.6289 6.9609,-2.6289 9.5938,0 l 7.9961,8 23.996,-23.992 c 1.3164,-1.3203 3.0586,-1.9727 4.8008,-1.9727 z"
     id="path1"
     style="fill:#008a00;fill-opacity:1" />
</svg>
